# xmcd
#
# Track frame offsets: 
#        150
#        13216
#        28559
#        42199
#        54697
#        66523
#        75293
#        90475
#        104001
#        115078
#        126741
#        139245
#        152831
#        165530
#        181808
#        190650
#        203642
#        218302
#        235617
#        253167
#        270016
#
# Disc length: 3835 seconds
#
# Revision: 2
# Processed by: cddbd v1.5.2PL0 Copyright (c) Steve Scherf et al.
# Submitted via: ExactAudioCopy v1.0b1
#
DISCID=180ef915
DTITLE=James Brown - Singles Vol 4 - 1966-1967 - CD 2.2
DYEAR=1900
DGENRE=
TTITLE0=Bring It Up
TTITLE1=Nobody Knows
TTITLE2=Kansas City
TTITLE3=Stone Fox (inst)
TTITLE4=It's A Gas - Part 1
TTITLE5=It's A Gas - Part 2
TTITLE6=Think
TTITLE7=Let Yourself Go
TTITLE8=Good Rocking Tonight
TTITLE9=I Loves You Porgy
TTITLE10=Yours And Mine
TTITLE11=Jimmy Mack
TTITLE12=What Do You Like
TTITLE13=It Won't Be Me
TTITLE14=Mona Lisa
TTITLE15=Cold Sweat - Part 1
TTITLE16=Cold Sweat - Part 2
TTITLE17=Get It Together (Part 1)
TTITLE18=Get It Together (Part 2)
TTITLE19=Get It Together (Version 2) (Part 1)
TTITLE20=Get It Together (Version 2) (Part 2)
EXTD=
EXTT0=
EXTT1=
EXTT2=
EXTT3=
EXTT4=
EXTT5=
EXTT6=
EXTT7=
EXTT8=
EXTT9=
EXTT10=
EXTT11=
EXTT12=
EXTT13=
EXTT14=
EXTT15=
EXTT16=
EXTT17=
EXTT18=
EXTT19=
EXTT20=
PLAYORDER=
